<?xml version="1.0" encoding="UTF-8" standalone="no"?>
<!-- Generator: Adobe Illustrator 16.0.0, SVG Export Plug-In . SVG Version: 6.00 Build 0)  -->

<svg
   xmlns:dc="http://purl.org/dc/elements/1.1/"
   xmlns:cc="http://creativecommons.org/ns#"
   xmlns:rdf="http://www.w3.org/1999/02/22-rdf-syntax-ns#"
   xmlns:svg="http://www.w3.org/2000/svg"
   xmlns="http://www.w3.org/2000/svg"
   xmlns:sodipodi="http://sodipodi.sourceforge.net/DTD/sodipodi-0.dtd"
   xmlns:inkscape="http://www.inkscape.org/namespaces/inkscape"
   version="1.1"
   id="Layer_1"
   x="0px"
   y="0px"
   width="17mm"
   height="17mm"
   viewBox="0 0 60.236225 60.236222"
   enable-background="new 0 0 79.89844 79.89844"
   xml:space="preserve"
   inkscape:version="0.91 r13725"
   sodipodi:docname="symbol.defdev.1608z.green-caribbean-darkened.svg"
   inkscape:export-filename="C:\Users\.tx\Google Drive\@\@defdev\repo\defdev.z\logo\symbol.defdev.1608z.green-caribbean.nomargin.png"
   inkscape:export-xdpi="1529.9764"
   inkscape:export-ydpi="1529.9764"><metadata
     id="metadata3347"><rdf:RDF><cc:Work
         rdf:about=""><dc:format>image/svg+xml</dc:format><dc:type
           rdf:resource="http://purl.org/dc/dcmitype/StillImage" /><dc:title></dc:title></cc:Work></rdf:RDF></metadata><defs
     id="defs3345" /><sodipodi:namedview
     pagecolor="#ffffff"
     bordercolor="#666666"
     borderopacity="1"
     objecttolerance="10"
     gridtolerance="10"
     guidetolerance="10"
     inkscape:pageopacity="0"
     inkscape:pageshadow="2"
     inkscape:window-width="1080"
     inkscape:window-height="657"
     id="namedview3343"
     showgrid="false"
     inkscape:zoom="5.7322773"
     inkscape:cx="27.113713"
     inkscape:cy="23.878898"
     inkscape:window-x="-8"
     inkscape:window-y="-8"
     inkscape:window-maximized="1"
     inkscape:current-layer="Layer_1"
     fit-margin-top="0"
     fit-margin-left="0"
     fit-margin-right="0"
     fit-margin-bottom="0"
     units="mm"
     borderlayer="true" /><g
     id="g3337"
     style="fill:#0bba98;fill-opacity:1"
     transform="translate(-10.218745,-10.046576)"
     inkscape:export-xdpi="1022"
     inkscape:export-ydpi="1022"><path
       d="m 67.95996,56.92773 -2.71191,-4.69531 -0.12793,-0.21191 -0.0293,0.01758 c -0.08203,-0.08496 -0.17578,-0.1582 -0.28027,-0.21777 -0.18945,-0.10938 -0.4043,-0.16699 -0.62207,-0.16699 -0.44922,0 -0.86621,0.24219 -1.08887,0.63086 -0.19531,0.3418 -0.21973,0.74609 -0.06543,1.11133 0.0127,0.03027 0.02637,0.05957 0.04199,0.08984 0.03125,0.06152 0.06738,0.11914 0.10645,0.17188 l 1.52832,2.64551 -36.77979,0 1.49658,-2.5918 28.70898,9.8e-4 c 0.44434,0 0.85938,-0.24023 1.08301,-0.62598 0.22266,-0.38574 0.22168,-0.86523 0,-1.25 L 50.86327,37.36281 C 50.83593,37.30275 50.80468,37.24513 50.76952,37.19093 50.75389,37.16652 50.73729,37.1421 50.72069,37.11915 50.61815,36.98438 50.4912,36.87257 50.34374,36.7881 c -0.18945,-0.10889 -0.40527,-0.1665 -0.62305,-0.1665 -0.44824,0 -0.86523,0.2417 -1.08789,0.63037 -0.17383,0.30273 -0.21191,0.65771 -0.1123,0.98486 l -0.03027,0.01855 7.47949,12.95459 -2.99316,0 -14.35449,-24.86378 c -0.22217,-0.38379 -0.63672,-0.62256 -1.08203,-0.62354 -0.44482,0 -0.85986,0.23975 -1.08301,0.62549 L 16.98438,60.07617 15.52979,57.55762 28.96875,34.27588 c 0.02197,-0.03418 0.04199,-0.06934 0.06152,-0.10693 0.0918,-0.1792 0.13818,-0.37109 0.13818,-0.5708 0,-0.69141 -0.56201,-1.25391 -1.25342,-1.25391 -0.41064,0 -0.79541,0.20215 -1.0293,0.53906 -0.0083,0.01172 -0.01611,0.02393 -0.0249,0.0376 -0.0249,0.03906 -0.04883,0.08105 -0.0708,0.12598 L 13.00146,56.93359 c -0.22168,0.38574 -0.22119,0.86426 9.8e-4,1.24902 l 2.89893,5.02051 c 0.22314,0.38574 0.63818,0.625 1.08301,0.625 l 17.03564,-9.8e-4 0.24561,-0.0029 0,-0.01563 c 0.14697,-0.02441 0.28857,-0.0752 0.41797,-0.14941 0.29004,-0.16699 0.49805,-0.43652 0.58545,-0.75977 0.0874,-0.32325 0.04346,-0.66113 -0.12354,-0.95117 -0.19873,-0.34668 -0.55566,-0.57813 -0.9541,-0.62109 -0.04541,-0.0049 -0.09131,-0.0078 -0.13721,-0.0078 -0.01416,0 -0.02881,0 -0.04297,9.8e-4 -0.02686,9.8e-4 -0.05322,0.0029 -0.07959,0.0049 l -14.78125,0.002 18.38965,-31.85254 1.49658,2.5918 -6.44873,11.16895 -0.12402,0.21582 0.03027,0.0166 c -0.03271,0.1123 -0.04883,0.22852 -0.04883,0.34766 0,0.69141 0.56201,1.25391 1.25342,1.25391 0.34375,0 0.67236,-0.14355 0.90771,-0.39063 l 0.02734,0.01563 5.84668,-10.12646 9.6084,16.64209 -19.2168,0 1.271,-2.20215 0.12305,-0.21777 -0.03027,-0.0166 c 0.03271,-0.1123 0.04932,-0.22852 0.04932,-0.34863 0,-0.69043 -0.5625,-1.25293 -1.25342,-1.25293 -0.40039,0 -0.78027,0.19434 -1.01563,0.52051 -0.01318,0.01758 -0.02637,0.03613 -0.03857,0.05566 -0.03271,0.05078 -0.06152,0.10352 -0.08545,0.15625 l -5.21045,9.02441 c -0.22266,0.38574 -0.22217,0.86523 4.9e-4,1.25098 0.22266,0.38477 0.63721,0.625 1.08203,0.625 l 38.94678,0 -1.4541,2.51855 -23.89649,0.002 c -0.03809,-0.0029 -0.07568,-0.0049 -0.11475,-0.0059 -0.04541,0 -0.09033,0.0029 -0.13525,0.0078 -0.17383,0.01855 -0.33838,0.07227 -0.48926,0.1582 -0.29053,0.16699 -0.49854,0.4375 -0.58594,0.76074 -0.0874,0.32324 -0.04346,0.66113 0.12354,0.95117 0.18115,0.31543 0.49072,0.5332 0.84082,0.60352 l 0,0.02539 24.979,-9.8e-4 c 0.44531,0 0.86035,-0.24023 1.08301,-0.62598 l 2.89746,-5.01953 c 0.22266,-0.38476 0.22266,-0.86425 9.8e-4,-1.25195 z"
       id="path3339"
       style="fill:#0bba98;fill-opacity:1"
       inkscape:connector-curvature="0" /><path
       d="m 30.57959,30.23828 c 0.34619,0 0.67432,-0.14404 0.90967,-0.39209 l 0.02783,0.01514 6.06299,-10.50293 8.41797,14.58057 0.12695,0.21387 0.02539,-0.01514 c 0.08203,0.08545 0.1748,0.1582 0.2793,0.21826 0.18945,0.10889 0.40527,0.16602 0.62305,0.16602 0.44824,0 0.86523,-0.24121 1.08789,-0.62988 0.17188,-0.29932 0.21094,-0.64844 0.11719,-0.96973 l 0.03223,-0.01611 -0.12891,-0.22314 -0.0039,-0.0088 -0.0029,-0.0039 -8.4082,-14.5625 2.90918,-4.9e-4 17.81836,30.8584 0.125,0.21094 0.03027,-0.01758 c 0.08203,0.08594 0.17578,0.15918 0.2793,0.21875 0.19043,0.1084 0.40527,0.16602 0.62305,0.16602 0.44824,0 0.86523,-0.24121 1.08789,-0.62988 0.17285,-0.30176 0.21289,-0.65234 0.11328,-0.98145 L 62.75684,47.91798 44.45898,16.22949 c -0.22266,-0.38428 -0.6377,-0.62354 -1.08203,-0.62354 l -5.79736,9.8e-4 c -0.06934,0 -0.13916,0.0068 -0.20459,0.02002 -0.37109,0.06201 -0.69092,0.28223 -0.87793,0.60498 l -6.96484,12.06494 -0.0044,0.0059 -0.06396,0.11133 -0.0024,0.0059 c -0.08984,0.17725 -0.13525,0.36719 -0.13525,0.56445 -2e-5,0.69141 0.56199,1.25391 1.2534,1.25391 z"
       id="path3341"
       style="fill:#0bba98;fill-opacity:1"
       inkscape:connector-curvature="0" /></g></svg>